<?xml version="1.0" encoding="UTF-8" standalone="no"?>
<svg width="929px" height="686px" viewBox="0 0 929 686" version="1.1" xmlns="http://www.w3.org/2000/svg" xmlns:xlink="http://www.w3.org/1999/xlink" xmlns:sketch="http://www.bohemiancoding.com/sketch/ns">
    <!-- Generator: Sketch 3.2.2 (9983) - http://www.bohemiancoding.com/sketch -->
    <title>isometric-phone</title>
    <desc>Created with Sketch.</desc>
    <defs>
        <path id="path-1" d="M247.739365,134.516439 C247.739365,132.311626 249.318416,129.677748 251.263984,128.634735 L524.992965,-18.1104636 C526.939558,-19.1540257 528.517584,-18.2072397 528.517584,-16.0078325 L528.517584,641.483561 C528.517584,643.688374 526.938533,646.322252 524.992965,647.365265 L251.263984,794.110464 C249.317391,795.154026 247.739365,794.20724 247.739365,792.007832 L247.739365,134.516439 Z"></path>
    </defs>
    <g id="Page-1" stroke="none" stroke-width="1" fill="none" fill-rule="evenodd" sketch:type="MSPage">
        <g id="isometric-phone" sketch:type="MSArtboardGroup">
            <g id="Rectangle-2-+-Screen" sketch:type="MSLayerGroup" transform="translate(-13.000000, -135.000000)">
                <path d="M303.589971,443.550992 L303.589971,940.559619 C303.589971,968.164275 323.226693,979.798896 347.449818,966.535514 L606.730123,824.566471 C630.95523,811.302003 650.589971,778.169092 650.589971,750.559619 L650.589971,10.5423653 C650.589971,-17.0622902 630.953248,-28.6969119 606.730123,-15.4335295 L347.449818,126.535514 C323.224711,139.799981 303.589971,172.932892 303.589971,200.542365 L303.589971,253.550992 L300.589971,253.550992 L300.589971,278.550992 L303.589971,278.550992 L303.589971,278.550992 L303.589971,312.550992 L303.589971,312.550992 L300.589971,312.550992 L300.589971,374.550992 L303.589971,374.550992 L303.589971,381.550992 L300.589971,381.550992 L300.589971,443.550992 L303.589971,443.550992 Z M480.251137,98.8528986 L432.007446,125.594813 L429.879304,121.755543 L478.122994,95.0136284 L480.251137,98.8528986 Z M453.209787,88.3268538 C451.365306,89.349266 450.701864,91.6787088 451.727946,93.5298099 C452.754028,95.380911 455.081078,96.0526961 456.925559,95.030284 C458.770039,94.0078718 459.433482,91.678429 458.4074,89.8273279 C457.381318,87.9762268 455.054267,87.3044417 453.209787,88.3268538 Z M415.214057,125.247116 C412.549808,126.723933 411.591502,130.088684 413.07362,132.762497 C414.555739,135.43631 417.917034,136.406666 420.581284,134.929848 C423.245533,133.453031 424.203839,130.08828 422.721721,127.414467 C421.239602,124.740655 417.878307,123.770298 415.214057,125.247116 Z" id="Rectangle-2" opacity="0.5" fill="#D9BCF4" sketch:type="MSShapeGroup" transform="translate(475.589971, 475.550992) rotate(45.000000) translate(-475.589971, -475.550992) "></path>
                <g id="Screen" transform="translate(69.589971, 83.550992)">
                    <mask id="mask-2" sketch:name="Rectangle 9" fill="white">
                        <use xlink:href="#path-1"></use>
                    </mask>
                    <use id="Rectangle-9" opacity="0.5" fill="#FFFFFF" sketch:type="MSShapeGroup" transform="translate(388.128474, 388.000000) rotate(45.000000) translate(-388.128474, -388.000000) " xlink:href="#path-1"></use>
                </g>
            </g>
        </g>
    </g>
</svg>